<?xml version="1.0" standalone="no"?>
<!DOCTYPE svg PUBLIC "-//W3C//DTD SVG 20010904//EN"
 "http://www.w3.org/TR/2001/REC-SVG-20010904/DTD/svg10.dtd">
<svg version="1.0" xmlns="http://www.w3.org/2000/svg"
 width="3240.000000pt" height="3240.000000pt" viewBox="0 0 3240.000000 3240.000000"
 preserveAspectRatio="xMidYMid meet">
<metadata>
Created by potrace 1.14, written by Peter Selinger 2001-2017
</metadata>
<g transform="translate(0.000000,3240.000000) scale(0.100000,-0.100000)"
fill="#000000" stroke="none">
<path d="M5997 19684 c-1 -1 -36 -4 -77 -7 -490 -35 -796 -340 -786 -780 3
-134 23 -205 82 -298 110 -173 273 -256 779 -394 327 -89 455 -182 455 -330 0
-133 -89 -220 -250 -243 -71 -11 -279 -6 -345 8 -180 37 -446 151 -566 243
-20 15 -40 27 -45 27 -5 0 -55 -90 -112 -199 l-102 -199 65 -41 c185 -117 437
-215 635 -246 25 -4 53 -9 62 -10 45 -9 173 -18 253 -18 589 -3 928 277 911
754 -6 149 -23 211 -89 316 -106 171 -301 272 -757 392 -369 98 -478 167 -488
313 -8 110 49 206 148 250 83 37 220 50 354 33 150 -19 368 -104 490 -192 55
-40 45 -46 102 57 72 129 154 284 154 289 0 15 -225 132 -338 176 -160 62
-312 92 -495 99 -21 0 -39 0 -40 0z"/>
<path d="M18458 19685 c-1 -1 -39 -5 -83 -8 -282 -21 -520 -138 -650 -322 -95
-134 -123 -220 -132 -400 -8 -169 21 -281 98 -385 104 -140 272 -227 624 -325
33 -10 81 -24 106 -31 25 -8 55 -16 67 -19 100 -19 296 -109 354 -163 65 -60
87 -176 49 -257 -49 -107 -174 -153 -401 -149 -175 3 -334 43 -518 129 -85 40
-210 110 -222 125 -3 3 -16 13 -30 21 l-25 17 -31 -62 c-17 -33 -57 -113 -90
-176 -96 -187 -93 -164 -26 -207 260 -168 609 -271 928 -275 532 -7 869 205
931 587 11 67 7 246 -7 305 -43 185 -172 329 -374 420 -94 42 -300 109 -496
160 -221 58 -323 102 -391 170 -36 36 -49 57 -54 91 -31 175 68 297 262 325
78 11 230 6 293 -11 3 -1 21 -5 40 -9 107 -24 288 -103 382 -167 33 -22 61
-39 63 -37 1 2 49 88 106 192 62 114 98 191 91 194 -6 2 -26 13 -44 25 -82 55
-249 131 -390 178 -86 29 -187 48 -290 55 -51 3 -103 7 -115 9 -12 2 -23 2
-25 0z"/>
<path d="M26315 19669 c-126 -13 -184 -27 -305 -71 -274 -101 -507 -317 -638
-592 -34 -70 -81 -201 -88 -246 -3 -14 -8 -34 -11 -45 -3 -11 -7 -30 -9 -42
-1 -13 -5 -42 -9 -65 -11 -62 -8 -255 4 -324 6 -32 13 -73 16 -90 17 -105 83
-268 161 -400 171 -287 483 -516 778 -570 96 -17 265 -23 361 -12 318 37 625
203 779 423 62 87 80 126 64 140 -16 15 -370 216 -373 213 -2 -2 -16 -27 -32
-56 -33 -60 -116 -149 -179 -193 -161 -111 -405 -145 -599 -83 -111 35 -258
144 -336 250 -69 94 -139 255 -155 358 -3 21 -8 48 -10 60 -10 48 -4 226 10
298 55 286 216 502 439 588 90 35 147 45 268 43 101 -1 167 -14 258 -50 121
-48 232 -142 291 -247 18 -31 36 -56 40 -54 5 2 87 57 184 123 l175 120 -26
45 c-111 192 -311 352 -529 424 -85 28 -99 32 -186 47 -76 13 -257 17 -343 8z"/>
<path d="M8256 19660 c-1 -3 -2 -552 -2 -1220 l1 -1215 848 -1 847 -2 0 209 0
209 -610 0 -610 0 0 315 c0 245 3 315 13 316 6 1 237 2 512 3 l500 1 2 193 2
192 -515 0 -514 0 0 294 0 293 591 0 c324 1 592 2 594 4 4 5 7 118 6 289 l-1
125 -831 0 c-457 0 -832 -2 -833 -5z"/>
<path d="M11260 18444 l0 -1221 848 0 847 0 1 208 1 209 -611 2 -611 3 -1 305
c0 168 1 310 3 315 2 7 178 10 506 9 276 0 507 3 512 7 6 4 10 79 9 191 l0
183 -515 5 -514 5 0 290 0 290 555 2 c305 1 573 2 596 2 l40 1 0 205 c0 137
-3 205 -10 206 -6 1 -381 2 -833 3 l-823 1 0 -1221z"/>
<path d="M14266 19660 c-1 -3 -2 -552 -2 -1220 l1 -1215 485 0 c533 0 606 4
750 39 324 81 575 277 719 562 42 84 95 233 105 294 3 19 8 45 10 57 10 48 19
164 20 263 5 338 -109 664 -306 870 -189 199 -412 305 -728 346 -64 8 -1050
12 -1054 4z m1046 -424 c352 -80 558 -358 562 -756 2 -194 -18 -306 -79 -437
-77 -167 -180 -271 -339 -343 -105 -48 -176 -57 -458 -59 l-258 -2 0 805 0
805 273 -4 c149 -1 284 -6 299 -9z"/>
<path d="M21620 18444 l0 -1222 238 2 237 1 0 1220 0 1220 -237 0 -238 0 0
-1221z"/>
<path d="M22689 19645 c-1 -26 -1 -2362 0 -2396 l1 -26 235 -1 235 0 0 41 c1
23 1 375 1 782 l1 740 20 -25 c11 -14 91 -113 177 -220 86 -107 161 -200 166
-206 6 -6 208 -259 450 -561 l440 -550 193 0 c170 0 192 2 193 16 1 21 1 2369
0 2399 l-1 22 -235 0 c-181 0 -235 -3 -236 -12 0 -7 0 -365 0 -795 0 -431 -2
-783 -4 -783 -3 0 -818 1022 -860 1079 -11 15 -108 137 -216 272 l-195 244
-182 0 c-175 0 -182 -1 -183 -20z"/>
<path d="M7349 17711 c-1 -3 -2 -115 -3 -248 l-1 -241 187 0 c104 0 188 3 189
7 7 54 2 475 -6 481 -11 9 -364 10 -366 1z"/>
<path d="M10350 17470 l0 -248 190 1 190 0 0 247 0 247 -190 0 -190 0 0 -247z"/>
<path d="M13355 17471 l0 -246 188 -1 c103 -1 187 1 188 5 1 8 1 451 0 472 -1
14 -24 16 -189 16 l-187 0 0 -246z"/>
<path d="M16759 17716 c-1 -1 -2 -112 -3 -248 l-1 -246 190 1 190 2 0 230 c0
127 -1 237 -3 246 -3 14 -27 16 -188 16 -101 0 -185 0 -185 -1z"/>
<path d="M19804 17471 l1 -246 188 -1 187 -2 0 248 0 247 -188 0 -189 0 1
-246z"/>
<path d="M4481 14139 c-127 -24 -186 -140 -130 -256 24 -49 63 -76 180 -123
97 -40 129 -68 136 -118 12 -88 -58 -139 -179 -129 -69 5 -104 12 -143 27 -24
9 -25 8 -25 -29 0 -37 3 -40 38 -53 21 -7 81 -13 142 -13 121 0 168 18 216 80
28 38 42 111 30 159 -11 43 -62 92 -128 121 -35 15 -86 38 -114 51 -64 28 -94
65 -94 113 0 39 21 72 58 91 33 17 140 15 191 -4 24 -9 45 -16 46 -16 8 0 26
60 21 68 -15 25 -171 45 -245 31z"/>
<path d="M5273 14139 c-89 -17 -155 -67 -197 -149 -29 -56 -38 -97 -41 -183
-6 -215 98 -350 280 -362 131 -9 214 25 282 113 103 135 84 409 -35 513 -20
18 -55 40 -77 50 -48 21 -150 30 -212 18z m184 -86 c45 -21 90 -74 105 -125 7
-24 13 -88 13 -143 0 -89 -3 -106 -27 -155 -31 -62 -65 -93 -124 -109 -176
-49 -308 66 -305 266 2 119 29 194 85 239 62 51 176 63 253 27z"/>
<path d="M6185 14129 c-137 -42 -214 -152 -220 -317 -6 -170 56 -292 174 -345
55 -25 196 -31 269 -13 44 11 47 15 48 45 0 33 0 33 -40 27 -112 -18 -161 -17
-217 3 -104 39 -144 113 -144 266 0 90 3 105 28 153 54 103 158 146 282 116
28 -6 58 -15 67 -19 23 -9 57 53 36 66 -52 34 -201 43 -283 18z"/>
<path d="M7445 14143 c-88 -17 -172 -78 -208 -150 -38 -76 -50 -192 -31 -295
16 -84 42 -135 93 -181 63 -56 102 -70 211 -71 81 -1 102 2 143 23 120 59 177
173 172 341 -6 204 -114 327 -293 334 -37 1 -76 1 -87 -1z m162 -84 c59 -19
114 -94 128 -174 21 -129 -5 -256 -65 -315 -84 -82 -246 -78 -321 8 -48 54
-62 96 -64 201 -5 169 50 265 170 291 37 8 109 3 152 -11z"/>
<path d="M9589 14139 c-171 -27 -270 -176 -256 -383 10 -144 59 -231 161 -283
43 -22 66 -26 145 -28 51 -1 112 3 135 10 37 11 41 15 44 48 3 36 3 36 -27 27
-16 -4 -58 -11 -93 -15 -177 -19 -282 84 -282 275 1 130 49 221 140 265 53 25
156 23 230 -5 15 -6 28 -9 29 -8 1 2 9 17 18 33 15 30 15 31 -11 42 -56 24
-162 34 -233 22z"/>
<path d="M10331 14134 c-87 -23 -136 -64 -177 -151 -31 -65 -35 -81 -38 -172
-8 -220 95 -354 282 -367 190 -13 315 88 341 277 26 191 -40 341 -176 401 -55
24 -163 30 -232 12z m175 -69 c43 -8 108 -67 129 -117 11 -27 19 -78 21 -133
8 -205 -73 -307 -236 -302 -127 5 -198 78 -218 223 -9 68 6 182 32 231 45 88
140 122 272 98z"/>
<path d="M12168 14135 c-142 -36 -221 -158 -220 -341 1 -132 30 -213 101 -277
62 -56 102 -69 211 -70 79 -1 103 2 140 21 120 59 180 174 175 337 -3 120 -33
201 -97 262 -70 67 -201 96 -310 68z m187 -76 c56 -18 103 -73 123 -145 17
-58 15 -191 -4 -253 -56 -191 -336 -205 -417 -21 -27 60 -31 203 -9 279 36
125 170 186 307 140z"/>
<path d="M14648 14144 c-2 -1 -19 -6 -37 -9 -79 -14 -154 -70 -195 -144 -36
-68 -40 -88 -41 -206 0 -162 47 -255 159 -312 43 -22 66 -27 145 -28 51 -1
112 3 135 10 37 11 41 16 44 47 l3 36 -56 -13 c-217 -51 -350 52 -348 271 1
179 98 283 259 276 29 -1 71 -9 94 -17 24 -8 44 -14 45 -13 1 2 9 17 18 33 15
30 15 31 -11 42 -15 6 -40 14 -57 17 -36 8 -153 15 -157 10z"/>
<path d="M20009 14130 c-102 -31 -156 -81 -196 -182 -34 -83 -37 -178 -9 -307
14 -66 94 -151 171 -182 41 -16 195 -20 252 -5 43 11 47 15 49 45 l3 33 -42
-7 c-99 -17 -181 -15 -227 6 -91 41 -135 120 -139 247 -4 134 50 240 141 277
64 26 162 22 240 -10 23 -9 57 53 36 66 -50 33 -202 43 -279 19z"/>
<path d="M24834 14144 c-5 -2 -28 -8 -50 -14 -82 -21 -133 -104 -120 -195 11
-71 66 -121 193 -174 55 -23 109 -51 118 -61 43 -47 32 -130 -22 -165 -43 -29
-196 -26 -277 5 -25 9 -26 8 -26 -29 0 -37 3 -40 37 -52 65 -21 208 -21 267 2
83 31 128 89 129 168 1 98 -47 146 -209 210 -97 38 -124 64 -130 121 -3 37 0
46 30 76 21 21 45 34 63 35 15 1 39 2 53 3 14 0 53 -6 88 -15 l63 -17 11 23
c16 37 4 52 -54 65 -49 12 -142 20 -164 14z"/>
<path d="M6789 14136 c-1 -1 -2 -155 -3 -343 l-1 -343 40 0 40 0 -1 328 c-1
180 -2 334 -3 344 -1 12 -10 16 -36 15 -19 -1 -36 -1 -36 -1z"/>
<path d="M8650 13793 l0 -343 191 0 190 0 -3 37 -3 36 -147 -1 -148 -2 0 125
c0 93 3 125 13 126 6 1 69 1 139 1 l126 1 4 28 c3 16 2 32 -1 37 -3 4 -68 7
-144 7 l-138 -1 3 111 3 110 135 1 c74 1 141 2 148 3 7 0 12 15 12 34 l0 33
-190 0 -190 0 0 -343z"/>
<path d="M11082 14122 c-6 -13 -9 -620 -3 -664 1 -5 17 -8 37 -8 l35 0 -3 289
-3 289 100 -151 c55 -84 102 -156 105 -162 3 -5 43 -67 89 -137 l83 -128 44 0
c35 0 44 4 45 18 1 21 1 655 0 663 -1 3 -17 5 -36 5 -30 -1 -35 -4 -36 -26 -3
-103 1 -523 6 -530 3 -6 3 -10 -2 -10 -4 0 -63 84 -129 188 -265 408 -242 378
-286 379 -27 1 -40 -3 -46 -15z"/>
<path d="M12910 13793 l0 -343 35 0 c21 0 35 5 36 13 1 6 1 142 1 301 l0 290
57 -150 c31 -82 83 -218 115 -301 l59 -153 32 0 c31 0 32 1 79 123 58 148 103
263 147 379 19 49 36 88 39 88 3 0 4 -133 2 -295 l-3 -295 41 0 40 0 0 343 0
343 -60 0 c-59 1 -59 0 -74 -35 -7 -20 -53 -137 -101 -261 -117 -301 -107
-285 -131 -213 -11 32 -60 160 -108 284 l-87 225 -60 0 -59 0 0 -343z"/>
<path d="M13959 14127 c-3 -40 -4 -654 -1 -664 2 -8 20 -13 41 -13 l37 0 -1
342 0 342 -37 2 c-23 2 -38 -2 -39 -9z"/>
<path d="M15620 13793 l0 -343 189 0 189 0 4 24 c9 45 -1 48 -153 49 l-144 2
0 124 0 125 139 0 139 1 1 28 c1 16 -3 31 -9 35 -5 4 -68 7 -140 7 l-130 0 -3
110 -3 111 151 -1 c92 0 151 4 153 10 2 5 1 21 -2 35 l-6 26 -187 0 -188 0 0
-343z"/>
<path d="M16335 13793 l0 -343 37 0 37 0 -2 285 c-1 157 -1 285 -1 285 2 0
287 -436 299 -457 6 -10 25 -39 43 -65 31 -45 36 -48 77 -48 l45 0 0 344 0
344 -27 0 c-16 0 -33 -4 -38 -9 -7 -5 -10 -102 -9 -284 0 -151 0 -275 -1 -275
-1 0 -17 24 -35 53 -19 28 -102 156 -185 282 l-151 231 -45 0 -45 1 1 -344z"/>
<path d="M17240 13794 l0 -344 40 0 40 0 0 163 0 162 177 -2 178 -1 3 -161 2
-161 40 0 40 0 0 343 0 342 -37 0 -38 0 -5 -145 -5 -145 -175 0 -175 0 -5 145
-5 144 -37 2 -38 2 0 -344z"/>
<path d="M18222 13933 c-44 -114 -105 -270 -135 -345 l-55 -138 42 0 41 0 41
108 41 107 138 0 139 0 41 -105 41 -105 42 -3 42 -3 -22 58 c-12 32 -73 186
-134 343 l-112 285 -34 3 -35 3 -81 -208z m171 -45 l54 -148 -108 0 c-60 0
-109 4 -109 8 0 4 15 46 34 93 18 46 42 110 52 141 10 32 19 57 20 55 1 -1 27
-68 57 -149z"/>
<path d="M18918 14131 c0 -3 -2 -158 -2 -343 l-1 -338 39 0 38 0 -3 285 c-2
157 -3 285 -3 285 1 0 30 -44 65 -97 35 -54 119 -182 186 -285 l123 -188 45 0
45 0 0 344 0 345 -38 -2 -38 -1 2 -284 c0 -156 -2 -280 -6 -275 -20 22 -200
305 -200 313 0 6 -4 10 -8 10 -5 0 -15 12 -23 28 -8 15 -18 32 -22 37 -5 6
-32 46 -60 90 -52 80 -52 81 -94 81 -24 0 -44 -2 -45 -5z"/>
<path d="M20609 14130 c-1 -3 -2 -157 -3 -343 l-1 -337 190 2 190 3 2 35 2 35
-152 -2 -152 -2 0 122 c0 88 3 123 12 127 7 3 71 5 143 4 l130 -1 0 33 c0 17
-6 34 -12 36 -7 2 -71 4 -143 3 l-130 -1 1 100 c1 56 2 106 3 111 1 7 51 11
141 10 77 0 145 2 151 6 5 3 8 19 6 35 l-4 29 -186 0 c-103 1 -188 -2 -188 -5z"/>
<path d="M21320 13793 l0 -344 37 3 38 3 -2 300 c0 165 2 293 5 286 10 -29
120 -318 172 -453 l52 -138 33 0 c36 0 28 -16 142 285 19 50 40 104 47 120 8
17 26 64 41 105 32 87 46 108 40 59 -4 -31 -7 -274 -6 -481 l1 -88 40 0 40 0
0 343 -1 342 -59 2 -58 1 -17 -41 c-13 -33 -144 -371 -197 -507 -8 -22 -15
-11 -59 105 -67 173 -139 362 -154 404 -13 34 -14 35 -74 37 l-61 1 0 -344z"/>
<path d="M22369 14120 c0 -8 -1 -162 -2 -342 l-2 -328 193 0 192 0 0 35 c0 40
19 36 -187 37 -98 0 -113 2 -114 16 -5 81 0 225 9 231 5 3 69 6 141 5 l131 -1
0 36 0 36 -142 0 -141 0 0 65 c1 36 2 86 2 111 l1 45 138 -1 c75 -1 143 0 150
3 6 2 12 18 12 36 l0 32 -190 0 c-164 0 -190 -2 -191 -16z"/>
<path d="M23086 14131 c-3 -4 -4 -158 -4 -344 l0 -337 37 0 37 0 -1 287 c-2
215 1 283 9 270 6 -10 72 -111 146 -225 75 -114 153 -235 175 -269 40 -62 40
-63 86 -63 l46 0 -1 343 -1 342 -35 0 -35 0 0 -283 1 -283 -21 28 c-11 15 -95
142 -186 282 l-165 255 -42 2 c-24 1 -44 -2 -46 -5z"/>
<path d="M23905 14131 c-3 -2 -5 -18 -5 -36 l0 -31 105 1 c58 1 106 -1 106 -4
1 -4 2 -141 3 -306 l1 -300 40 -3 40 -3 0 308 0 308 105 1 c58 1 107 2 110 3
10 2 5 61 -5 62 -28 4 -496 4 -500 0z"/>
<path d="M26000 14114 c-6 -14 -19 -46 -30 -72 -29 -70 -230 -583 -230 -588 0
-2 18 -4 39 -4 l40 0 31 83 c17 45 37 94 43 110 l12 27 136 0 136 0 43 -110
43 -110 42 0 42 0 -47 118 c-71 178 -166 420 -191 487 -28 76 -35 85 -70 85
-22 0 -32 -6 -39 -26z m101 -237 c27 -71 49 -131 49 -133 0 -2 -49 -4 -110 -4
l-109 0 26 68 c14 37 36 99 50 137 37 107 35 103 41 81 2 -11 26 -78 53 -149z"/>
<path d="M26626 14132 c-3 -4 -5 -160 -5 -345 l0 -337 38 0 37 0 -1 285 c-1
157 -1 285 1 285 1 0 13 -17 25 -37 13 -21 73 -114 134 -208 61 -93 133 -205
160 -247 l50 -78 46 0 47 0 -2 343 -1 342 -35 0 -35 0 1 -283 c0 -211 -3 -279
-11 -270 -11 12 -218 327 -240 365 -6 10 -35 56 -66 103 -54 83 -57 85 -97 87
-22 2 -43 -1 -46 -5z"/>
<path d="M27529 14136 c-1 0 -2 -156 -3 -345 l-1 -343 150 4 c123 4 160 8 205
26 116 46 181 146 188 293 9 174 -55 290 -188 340 -45 17 -82 22 -202 24 -82
2 -149 2 -149 1z m324 -94 c88 -40 128 -109 132 -231 4 -129 -40 -218 -131
-262 -37 -17 -70 -23 -148 -27 l-102 -4 2 268 c1 148 2 273 3 277 2 16 200 -2
244 -21z"/>
<path d="M8110 13740 c-6 -4 -7 -28 -1 -63 0 -4 51 -6 113 -5 l112 3 1 28 c1
15 -3 31 -9 34 -12 8 -204 10 -216 3z"/>
<path d="M10459 12816 c-2 -2 -21 -7 -42 -10 -97 -15 -173 -88 -211 -201 -16
-46 -24 -195 -12 -240 21 -85 50 -139 95 -181 90 -83 276 -97 385 -28 89 57
136 155 140 294 7 219 -96 349 -286 365 -35 3 -66 4 -69 1z m142 -89 c83 -35
125 -120 128 -257 4 -182 -61 -274 -203 -287 -120 -11 -198 41 -241 162 -4 11
-9 54 -12 96 -11 162 53 273 172 299 44 9 118 3 156 -13z"/>
<path d="M15831 12809 c-92 -17 -151 -83 -151 -168 0 -93 47 -148 171 -199
122 -50 157 -75 165 -117 13 -71 -16 -116 -88 -135 -50 -14 -156 -7 -215 14
l-43 15 0 -38 c0 -47 20 -58 125 -67 189 -16 305 54 305 185 0 50 -15 89 -46
122 -23 24 -51 38 -192 100 -88 38 -119 93 -92 163 11 29 54 54 101 60 31 3
138 -14 170 -28 19 -8 23 -3 33 37 5 23 3 29 -19 37 -60 23 -158 31 -224 19z"/>
<path d="M20358 12809 c-89 -13 -195 -86 -233 -159 -26 -51 -42 -135 -39 -211
6 -142 65 -243 171 -296 49 -23 72 -28 153 -30 82 -2 222 18 240 34 2 2 5 78
5 169 l0 164 -117 0 -118 0 0 -35 0 -34 77 -3 78 -3 0 -98 c1 -68 -3 -101 -12
-109 -18 -15 -169 -19 -218 -7 -107 28 -164 108 -172 243 -13 195 82 308 259
308 40 0 96 -8 123 -16 28 -9 53 -16 57 -16 5 0 28 54 28 66 0 2 -25 11 -55
20 -63 18 -157 23 -227 13z"/>
<path d="M22269 12806 c-108 -28 -160 -107 -137 -210 17 -76 70 -119 218 -176
66 -26 99 -51 109 -83 22 -66 -11 -128 -77 -147 -47 -12 -167 -5 -219 14 -47
16 -49 15 -43 -39 4 -38 20 -43 146 -52 189 -13 301 78 279 225 -10 65 -59
109 -181 160 -126 54 -154 78 -154 136 0 78 52 115 155 108 37 -3 97 -16 129
-28 15 -6 41 55 29 66 -32 28 -184 43 -254 26z"/>
<path d="M25283 12809 c-54 -10 -118 -43 -159 -83 -87 -84 -119 -265 -73 -408
27 -85 70 -138 143 -176 47 -24 61 -26 166 -26 136 0 160 9 160 58 l0 34 -49
-13 c-62 -16 -176 -13 -222 7 -47 20 -104 88 -119 143 -18 63 -19 151 -2 214
29 114 98 174 212 184 32 3 121 -12 161 -28 10 -4 20 5 32 29 l16 35 -48 16
c-56 18 -158 25 -218 14z"/>
<path d="M6482 12462 l0 -344 151 4 c186 6 230 19 303 92 69 70 93 139 90 267
-2 103 -20 157 -71 217 -69 82 -140 105 -332 107 l-141 1 0 -344z m330 250
c86 -42 128 -117 130 -232 2 -110 -19 -172 -74 -222 -54 -48 -95 -62 -205 -66
l-101 -4 0 275 1 274 102 -2 c81 -1 111 -6 147 -23z"/>
<path d="M7362 12463 l1 -343 191 0 192 0 -1 35 0 35 -151 0 -151 0 1 127 1
127 130 2 c72 0 135 2 140 2 12 2 19 61 8 63 -5 1 -69 2 -143 3 l-135 1 0 110
0 110 140 1 c77 1 145 2 150 3 9 1 12 36 6 62 0 3 -86 5 -190 5 l-189 0 0
-343z"/>
<path d="M7990 12795 c0 -6 14 -50 31 -96 28 -79 55 -153 100 -279 10 -30 39
-109 63 -175 l43 -120 40 -3 39 -3 68 188 c37 103 71 197 76 208 12 28 100
279 100 286 0 3 -18 5 -39 6 -28 1 -42 -4 -46 -16 -31 -76 -167 -467 -171
-491 -4 -17 -11 -33 -15 -36 -5 -3 -7 -9 -4 -14 3 -5 1 -11 -4 -14 -5 -4 -12
8 -16 26 -4 18 -43 134 -87 258 -44 124 -84 239 -90 256 -9 26 -15 30 -49 31
-25 0 -39 -4 -39 -12z"/>
<path d="M8830 12463 l0 -343 190 0 190 0 0 35 0 35 -150 0 -151 0 3 127 3
128 137 -1 c124 -1 137 1 141 18 3 10 3 26 0 36 -4 16 -18 17 -144 16 l-139
-1 0 112 0 111 150 -1 150 -1 0 36 0 36 -190 0 -190 0 0 -343z"/>
<path d="M9545 12802 c-3 -3 -5 -158 -5 -344 l0 -338 193 2 192 3 -1 28 c-1
15 -2 30 -3 35 0 4 -68 6 -151 5 l-149 -2 0 299 c0 165 -2 304 -5 309 -6 10
-62 12 -71 3z"/>
<path d="M11155 12802 c-3 -3 -5 -158 -5 -344 l0 -338 40 0 40 0 0 135 0 135
68 1 c95 2 116 5 164 28 64 29 89 56 109 113 39 117 -14 229 -123 259 -43 12
-283 21 -293 11z m268 -81 c52 -20 77 -59 77 -121 0 -94 -49 -131 -182 -138
l-88 -4 0 134 c0 74 3 137 6 141 10 9 155 0 187 -12z"/>
<path d="M11909 12801 c-1 -8 -1 -642 0 -663 1 -14 10 -18 36 -18 l36 0 -3
300 c-2 165 -2 300 -1 300 4 0 30 -64 48 -114 7 -23 52 -140 98 -261 l85 -220
34 -3 33 -3 114 298 c63 164 115 299 116 301 2 2 2 -124 1 -280 -1 -156 0
-291 2 -300 3 -13 14 -18 41 -18 l37 0 0 343 -1 342 -45 1 c-72 1 -75 -2 -110
-94 -60 -160 -161 -417 -174 -445 l-13 -28 -25 68 c-13 37 -62 165 -108 284
l-82 215 -59 0 c-33 0 -59 -2 -60 -5z"/>
<path d="M12962 12800 c-5 -3 -8 -157 -8 -342 l0 -338 192 0 193 0 -2 35 -2
35 -150 0 -150 0 -1 124 c0 105 2 125 15 128 9 2 73 3 144 3 l127 0 0 31 c0
18 -6 34 -12 36 -7 2 -70 3 -140 3 -82 -1 -129 3 -131 9 -2 6 -3 56 -3 111 l1
100 148 0 c132 -1 148 1 153 17 3 10 3 26 0 36 -6 17 -20 19 -186 18 -99 0
-184 -3 -188 -6z"/>
<path d="M13670 12463 l0 -344 37 3 37 3 -1 205 c0 113 -2 238 -3 278 -2 40
-1 74 1 76 2 2 87 -124 189 -280 l184 -285 46 3 45 3 0 340 0 340 -38 1 -38 1
3 -284 c2 -156 2 -283 0 -283 -2 0 -113 167 -277 420 -48 74 -90 137 -92 140
-2 2 -24 5 -48 6 l-45 2 0 -345z"/>
<path d="M14490 12773 c0 -19 5 -34 13 -34 6 -1 50 -3 97 -4 47 -1 90 -3 95
-4 7 -1 10 -100 10 -288 0 -159 1 -296 4 -306 3 -14 12 -17 40 -15 l36 3 0
303 c0 194 4 302 10 303 5 1 51 3 100 4 118 3 112 2 109 28 -1 12 -3 27 -3 32
-1 8 -85 11 -256 11 l-255 0 0 -33z"/>
<path d="M16337 12795 c-2 -5 -3 -21 -2 -35 2 -25 2 -25 106 -25 57 1 106 -2
109 -6 3 -4 5 -143 4 -308 l-1 -301 41 0 41 0 0 307 0 308 108 0 107 -1 0 36
0 36 -255 0 c-168 0 -256 -4 -258 -11z"/>
<path d="M17130 12463 l0 -343 40 0 40 0 0 143 0 143 72 -1 72 0 84 -142 84
-143 44 0 c24 0 44 2 44 5 0 3 -22 42 -50 86 -27 44 -50 82 -50 84 0 3 -18 32
-40 66 l-39 61 46 31 c26 18 56 47 66 64 37 65 29 166 -19 222 -39 47 -108 65
-261 66 l-133 2 0 -344z m299 251 c78 -46 70 -182 -13 -222 -16 -8 -65 -14
-114 -15 l-87 -2 -3 131 -3 131 95 -3 c69 -2 103 -7 125 -20z"/>
<path d="M18018 12643 c-36 -92 -96 -244 -133 -337 -36 -93 -68 -173 -71 -178
-3 -4 15 -8 40 -8 34 0 46 4 46 15 0 8 4 23 10 33 5 9 22 51 38 92 l29 75 137
2 137 2 11 -27 c6 -15 14 -36 19 -47 5 -11 20 -47 32 -80 23 -59 24 -60 65
-63 l42 -3 -24 63 c-21 56 -100 256 -207 528 -36 92 -38 95 -71 98 l-34 3 -66
-168z m137 -38 c20 -55 45 -120 55 -145 l19 -45 -106 -3 c-58 -1 -107 -1 -110
1 -2 2 16 58 41 123 24 65 48 132 51 147 4 15 9 27 10 25 2 -2 19 -48 40 -103z"/>
<path d="M18610 12770 l0 -36 100 1 c55 1 104 -1 108 -4 4 -4 8 -141 8 -306
l-1 -300 41 -3 40 -3 -1 293 c-1 161 1 300 3 308 3 13 22 16 110 15 116 0 108
-4 103 58 -1 10 -55 13 -256 13 l-255 0 0 -36z"/>
<path d="M19406 12800 c-1 -3 -2 -156 -2 -340 l1 -335 190 -3 191 -2 1 35 1
35 -152 0 -152 0 1 123 c0 67 3 124 6 127 4 3 68 5 143 4 l136 0 0 33 c0 24
-5 33 -17 34 -10 1 -74 2 -143 3 l-124 1 -1 108 c-1 90 2 107 15 108 8 1 71 3
140 4 69 1 130 3 137 4 6 0 11 16 11 34 l0 33 -190 0 c-104 0 -191 -3 -192 -6z"/>
<path d="M21000 12463 l0 -343 40 0 40 0 0 343 0 343 -40 0 -40 0 0 -343z"/>
<path d="M21448 12791 c-3 -13 -2 -620 1 -658 1 -10 46 -13 191 -13 l190 0 0
35 0 35 -152 0 -153 0 1 118 c0 65 3 123 6 128 4 5 68 9 143 8 l136 0 -3 35
-3 36 -137 -1 -138 0 -1 25 c-1 30 -1 184 0 191 1 3 67 6 149 5 l147 0 3 35 3
36 -190 0 c-164 0 -190 -2 -193 -15z"/>
<path d="M23714 12801 c-2 -2 -4 -157 -4 -343 l0 -338 40 0 40 0 0 344 0 345
-36 -2 c-20 -1 -38 -4 -40 -6z"/>
<path d="M24160 12761 c-1 -67 -1 -355 0 -508 l0 -133 38 0 37 0 -2 271 c-1
149 -4 277 -7 285 -14 36 13 7 54 -58 25 -39 82 -126 126 -194 45 -67 84 -126
86 -131 2 -4 27 -45 57 -90 l54 -83 46 0 46 0 0 343 0 342 -35 0 -35 0 0 -283
c0 -155 -1 -282 -3 -282 -1 0 -59 87 -128 193 -70 105 -153 233 -187 283 l-60
91 -43 0 -44 0 0 -46z"/>
<path d="M25860 12227 c-45 -23 -42 -107 4 -115 31 -6 64 7 71 28 18 58 -28
110 -75 87z"/>
<path d="M22829 12115 c-14 -63 -23 -115 -20 -116 47 -7 50 -5 72 45 28 67 59
156 59 173 0 9 -14 13 -43 13 l-43 0 -25 -115z"/>
</g>
</svg>
